<?xml version="1.0" standalone="no"?><!DOCTYPE svg PUBLIC "-//W3C//DTD SVG 1.1//EN" "http://www.w3.org/Graphics/SVG/1.1/DTD/svg11.dtd"><svg class="icon" width="200px" height="200.00px" viewBox="0 0 1024 1024" version="1.1" xmlns="http://www.w3.org/2000/svg"><path d="M644.7 217.1l125.9 126.3C657 456.6 542.7 570.6 429.1 684.5L303.2 558.2c113.6-114 228-227.9 341.5-341.1zM475.4 832.1h283.9c12.5 0 23.4 4.7 30.9 18 13.4 24.6-1.7 53.9-27.6 55.8H192.3c-13.4 0-24.2-4.7-31.7-18-13.4-24.6 1.7-53.9 27.6-55.8h287.2zM794 315.5c-41.1-40.8-81.5-80.8-121.8-121.6l3.2-3.1 55.4-54.9c22.9-22.8 53.8-22.8 76.7 0l44.3 43.9c22.9 22.8 22.9 53.4 0 76.1L797.2 310c-1.6 2.4-2.4 4-3.2 5.5zM180.2 781.3c25.1-65.3 49.4-130.7 74.5-195.2 40.5 39.8 81.8 79.7 122.3 120.3-64.8 25.5-130.4 51-196 76.5 0-0.8-0.8-0.8-0.8-1.6z" fill="#CCCCCC" /></svg>