<?xml version="1.0" standalone="no"?><!DOCTYPE svg PUBLIC "-//W3C//DTD SVG 1.1//EN" "http://www.w3.org/Graphics/SVG/1.1/DTD/svg11.dtd"><svg class="icon" width="200px" height="200.00px" viewBox="0 0 1024 1024" version="1.1" xmlns="http://www.w3.org/2000/svg"><path d="M880.5 585.8l-73.7-73.7 73.6-73.8c40.7-40.7 40.7-106.7 0-147.4L733.1 143.5c-40.7-40.7-106.7-40.7-147.3 0l-73.7 73.7-73.7-73.7c-40.8-40.7-106.8-40.7-147.4 0L143.5 291c-40.7 40.7-40.7 106.7 0 147.4l73.7 73.7-73.7 73.8c-40.7 40.7-40.7 106.7 0 147.4l147.4 147.4c40.8 40.7 106.8 40.7 147.4 0L512 807l73.8 73.7c40.7 40.7 106.7 40.7 147.3 0l147.3-147.4c40.8-40.8 40.8-106.8 0.1-147.5zM693 557.6H557.6V693h-90.2V557.6H332v-90.2h135.4V332h90.2v135.4h135.5v90.2z" fill="#94A2B1" /></svg>