<?xml version="1.0" standalone="no"?><!DOCTYPE svg PUBLIC "-//W3C//DTD SVG 1.1//EN" "http://www.w3.org/Graphics/SVG/1.1/DTD/svg11.dtd"><svg class="icon" width="200px" height="200.00px" viewBox="0 0 1024 1024" version="1.1" xmlns="http://www.w3.org/2000/svg"><path d="M354 279.9c24.9 0 45.2-23.1 45.2-51.5v-77.3c0-28.4-20.3-51.5-45.2-51.5-24.9 0-45.2 23.1-45.2 51.5v77.3c0 28.4 20.2 51.5 45.2 51.5zM655.3 279.9c24.9 0 45.2-23.1 45.2-51.5v-77.3c0-28.4-20.3-51.5-45.2-51.5-24.9 0-45.2 23.1-45.2 51.5v77.3c0 28.4 20.3 51.5 45.2 51.5z" fill="#FF9648" /><path d="M534.8 708.1c0-112.1 91-202.9 203.4-202.9 55.9 0 106.4 22.4 143.1 58.6v-314c0-33.2-27-60.1-60.3-60.1h-90.4v45.1c0 41.5-33.7 75.1-75.3 75.1-41.6 0-75.3-33.6-75.3-75.1v-45.1H429.3v45.1c0 41.5-33.7 75.1-75.3 75.1-41.6 0-75.3-33.6-75.3-75.1v-45.1h-90.4c-33.3 0-60.3 26.9-60.3 60.1v586c0 33.2 27 60.1 60.3 60.1h473.1C587 865.8 534.8 793.2 534.8 708.1zM312.9 412.4c0-15.7 14.1-28.4 31.4-28.4h314.1c17.3 0 31.4 12.7 31.4 28.4s-14.1 28.4-31.4 28.4H344.3c-17.3 0.1-31.4-12.6-31.4-28.4z" fill="#FF9648" /><path d="M739.6 540.4c-94.3 0-170.7 76.5-170.7 170.7 0 94.3 76.5 170.7 170.7 170.7 94.2 0 170.7-76.4 170.7-170.7-0.1-94.2-76.5-170.7-170.7-170.7z m81.6 193.1h-59.4v59.4c0 12.3-10 22.3-22.3 22.3s-22.3-10-22.3-22.3v-59.4h-59.4c-12.3 0-22.3-10-22.3-22.3s10-22.3 22.3-22.3h59.4v-59.4c0-12.3 10-22.3 22.3-22.3s22.3 10 22.3 22.3V689h59.4c12.3 0 22.3 10 22.3 22.3 0 12.2-10 22.2-22.3 22.2z" fill="#FF9648" /></svg>