<?xml version="1.0" standalone="no"?><!DOCTYPE svg PUBLIC "-//W3C//DTD SVG 1.1//EN" "http://www.w3.org/Graphics/SVG/1.1/DTD/svg11.dtd"><svg class="icon" width="200px" height="200.00px" viewBox="0 0 1024 1024" version="1.1" xmlns="http://www.w3.org/2000/svg"><path d="M915.3 828.7L732.6 646.1c39.5-57.6 60.9-125.6 60.9-197.1 0-192.4-155.6-349-346.8-349C255.6 100 100 256.6 100 449s155.6 348.9 346.8 348.9c72.8 0 142.1-22.6 200.2-64.3l181.7 181.7c14.1 14.1 36.9 14.1 50.9 0l35.6-35.6c14.1-14.1 14.1-36.9 0.1-51zM446 262c-105 15.5-181.3 97.7-181.3 195.4 0 8.2 0.8 17.1 2.4 28 1.7 10.9-6.6 20.9-18.4 22.4-1 0.1-2.1 0.2-3.1 0.2-10.6 0-19.9-7.2-21.4-17.1-1.9-12.7-2.8-23.4-2.8-33.5 0-117.3 91.6-216 217.7-234.7 11.7-1.8 23 5.6 24.8 16.4 2 10.9-6.1 21.1-17.9 22.9z" fill="#E2E2E2" /></svg>