<?xml version="1.0" standalone="no"?><!DOCTYPE svg PUBLIC "-//W3C//DTD SVG 1.1//EN" "http://www.w3.org/Graphics/SVG/1.1/DTD/svg11.dtd"><svg class="icon" width="200px" height="200.00px" viewBox="0 0 1024 1024" version="1.1" xmlns="http://www.w3.org/2000/svg"><path d="M512 62C263.6 62 62 263.6 62 512s201.6 450 450 450 450-201.6 450-450S760.4 62 512 62zM266.5 580.2c-37.6 0-68.2-30.5-68.2-68.2 0-37.6 30.5-68.2 68.2-68.2 37.6 0 68.2 30.5 68.2 68.2 0 37.6-30.5 68.2-68.2 68.2z m245.5 0c-37.6 0-68.2-30.5-68.2-68.2 0-37.6 30.5-68.2 68.2-68.2 37.6 0 68.2 30.5 68.2 68.2 0 37.6-30.6 68.2-68.2 68.2z m245.5 0c-37.6 0-68.2-30.5-68.2-68.2 0-37.6 30.5-68.2 68.2-68.2 37.6 0 68.2 30.5 68.2 68.2 0 37.6-30.6 68.2-68.2 68.2z" fill="#D4D4D4" /></svg>