<?xml version="1.0" standalone="no"?><!DOCTYPE svg PUBLIC "-//W3C//DTD SVG 1.1//EN" "http://www.w3.org/Graphics/SVG/1.1/DTD/svg11.dtd"><svg class="icon" width="200px" height="200.00px" viewBox="0 0 1024 1024" version="1.1" xmlns="http://www.w3.org/2000/svg"><path d="M512 113.8c-188.5 0-341.3 152.9-341.3 341.7 0 94.3 38.2 179.7 100 241.6L512 938.7l241.4-241.6c64.2-64.2 100.1-151.1 100-241.6-0.1-188.8-152.9-341.7-341.4-341.7z m107.5 448.9c-28.5 28.5-67.1 44.5-107.5 44.6-40.4-0.1-79-16.2-107.5-44.7-28.5-28.5-44.4-67.1-44.3-107.2-0.1-40.2 15.8-78.7 44.3-107.2 28.5-28.5 67.1-44.5 107.5-44.6 40.4 0.1 79 16.2 107.5 44.7 28.5 28.5 44.4 67.1 44.3 107.2 0.1 40.1-15.8 78.7-44.3 107.2z" fill="#B2B2B2" /></svg>