<?xml version="1.0" standalone="no"?><!DOCTYPE svg PUBLIC "-//W3C//DTD SVG 1.1//EN" "http://www.w3.org/Graphics/SVG/1.1/DTD/svg11.dtd"><svg t="1743125689429" class="icon" viewBox="0 0 1024 1024" version="1.1" xmlns="http://www.w3.org/2000/svg" p-id="2038" xmlns:xlink="http://www.w3.org/1999/xlink" width="200" height="200"><path d="M776.04389 985.695761H247.95611c-84.269327 0-153.216958-68.947631-153.216958-153.727681V192.03192c0-84.269327 68.947631-153.727681 153.216958-153.727681h377.935162c40.857855 0 79.162095 18.896758 104.187531 50.561596L900.149626 305.412469c18.386035 23.493267 28.600499 52.604489 28.600499 82.226434v443.818454c0.510723 84.78005-68.436908 154.238404-152.706235 154.238404z" fill="#E6F1FF" p-id="2039"></path><path d="M776.04389 1024H247.95611c-104.187531 0-188.967581-85.290773-188.967581-190.499751V190.499751C58.988529 85.290773 143.768579 0 247.95611 0h377.935162c52.093766 0 100.101746 23.493267 132.277307 64.861845l170.070822 217.56808c23.493267 29.621945 36.261347 66.904738 36.261347 105.208978v446.37207c0.510723 104.698254-84.269327 189.989027-188.456858 189.989027zM247.95611 72.01197c-64.861845 0-117.466334 53.115212-117.466334 118.487781v643.000498c0 65.372569 52.604489 118.487781 117.466334 118.487781h527.577057c64.861845 0 117.466334-53.115212 117.466334-118.487781V387.638903c0-21.450374-7.150125-43.411471-20.939651-60.77606l-170.070823-217.56808c-18.386035-23.493267-46.47581-37.282793-76.097755-37.282793h-377.935162z" fill="#96C6FF" p-id="2040"></path><path d="M292.389027 387.12818h76.608479l48.00798 247.190024h3.064339l51.07232-215.014463h84.78005l48.00798 215.014463h3.064339l49.029426-247.190024H731.610973l-76.608479 334.012967h-91.419452L512 509.191022h-3.064339l-52.604489 211.950125H364.911721L292.389027 387.12818z" fill="#0075FF" p-id="2041"></path></svg>