<?xml version="1.0" standalone="no"?><!DOCTYPE svg PUBLIC "-//W3C//DTD SVG 1.1//EN" "http://www.w3.org/Graphics/SVG/1.1/DTD/svg11.dtd"><svg class="icon" width="200px" height="200.00px" viewBox="0 0 1024 1024" version="1.1" xmlns="http://www.w3.org/2000/svg"><path d="M818.4 180.2h-43.7v-43.1c0-23.8-19.6-43.1-43.8-43.1-24.2 0-43.8 19.3-43.8 43.1v43.1H337v-43.1c0-15.4-8.4-29.6-21.9-37.3-13.6-7.7-30.3-7.7-43.8 0-13.6 7.7-21.9 21.9-21.9 37.3v43.1h-43.7c-48.3 0.1-87.4 38.6-87.6 86v578.5c0 47.4 39.4 86.2 87.6 86.2h612.8c48.4-0.1 87.5-38.7 87.6-86.2V266.4c-0.2-47.6-39.3-86.1-87.7-86.2zM518.7 315.9c73.8 0.2 133.4 58.6 133.6 130.6-0.2 72-59.8 130.3-133.5 130.5-73.7-0.2-133.4-58.5-133.6-130.5 0.1-72 59.7-130.3 133.5-130.6z m253.7 509.2H251.6v-41.4c0-82.7 173.6-128.3 260.4-128.3 86.8 0 260.4 45.5 260.4 128.3v41.4z" fill="#FB7676" /></svg>