<?xml version="1.0" standalone="no"?><!DOCTYPE svg PUBLIC "-//W3C//DTD SVG 1.1//EN" "http://www.w3.org/Graphics/SVG/1.1/DTD/svg11.dtd"><svg class="icon" width="200px" height="200.00px" viewBox="0 0 1024 1024" version="1.1" xmlns="http://www.w3.org/2000/svg"><path d="M814.8 188H276.3c-6.4 0.1-12.4 2.9-16.5 7.8s-5.8 11.2-4.7 17.4c0.9 10.2 9.5 18.2 19.9 18.4h539.8c24 0 43.5 19.3 43.5 43v21.5H270.1c-47.5 0.7-87.2-35.5-90.2-82.4-1.7-23.9 6.7-47.4 23.2-64.9 16.5-17.5 39.7-27.4 63.9-27.3h482c10.8-1.8 18.7-11 18.7-21.8s-7.9-20-18.7-21.8H267c-35.1 0.2-68.6 14.1-93.3 38.8-24.6 24.7-38.3 58.1-38 92.7v649.8c0 47.9 39.3 86.7 87.7 86.7h591.4c48.3-0.3 87.3-38.9 87.7-86.7V274.7c-0.3-47.7-39.4-86.3-87.7-86.7zM526.3 772.4H323.8c-16 0-28.9-13-28.9-28.9 0-16 13-28.9 28.9-28.9h202.5c16 0 28.9 13 28.9 28.9 0.1 16-12.9 28.9-28.9 28.9zM294.9 598.8c0-16 13-28.9 28.9-28.9h144.7c16 0 28.9 13 28.9 28.9 0 16-13 28.9-28.9 28.9H323.8c-16 0-28.9-12.9-28.9-28.9z m318.2-115.7H323.8c-16 0-28.9-13-28.9-28.9 0-16 13-28.9 28.9-28.9h289.4c16 0 28.9 13 28.9 28.9 0 15.9-13 28.9-29 28.9z" fill="#68E261" /></svg>