<?xml version="1.0" standalone="no"?><!DOCTYPE svg PUBLIC "-//W3C//DTD SVG 1.1//EN" "http://www.w3.org/Graphics/SVG/1.1/DTD/svg11.dtd"><svg class="icon" width="200px" height="200.00px" viewBox="0 0 1024 1024" version="1.1" xmlns="http://www.w3.org/2000/svg"><path d="M961.9 773.5c-1-10.7-2.6-19.7-4.7-27-3.8-12.3-10.2-22-19.2-29.1-9-7.1-19.4-13-31.2-17.8-11.8-4.8-23.9-9-36.2-12.7-12.4-3.6-23.8-7.7-34.3-12.3-11.8-5.1-20.9-10.7-27.4-17.2-6.5-6.4-11.3-13.1-14.5-20.1-3.2-7.1-4.9-14.2-5.4-21.3-0.4-7 0-14 1.3-20.8 1.7-11.4 5-19.5 10.1-24.3 5.1-4.8 11.6-10.6 19.5-17.5 3.4-3.2 6.4-7.6 9.1-13.4 2.7-5.7 5.2-11.5 7.3-17.5 2.1-6.8 4.2-14.1 6.3-21.9 4.2-1.4 8.2-3.9 12-7.5 3.4-3.2 6.4-7.7 9.1-13.3 2.7-5.7 4.5-13.3 5.4-23 0.8-7.3 0.7-13.5-0.3-18.5-1.1-5.1-2.4-9.2-4.1-12.4-1.7-3.6-4-6.6-6.9-8.9 0-18.7-1.1-37.2-3.2-55.4-2.1-16-5.7-32.7-10.7-50.3-5-17.6-13-33.7-23.9-48.3-4.6-6.4-11-12.8-19.2-19.2-8.2-6.4-17.5-12.1-28-17.1-10.5-5.1-21.7-9-33.7-12-12-3-24.1-4.5-36.3-4.5-9.6 0-19.6 0.8-29.9 2.4-10.3 1.6-20.6 4.7-30.9 9.2-10.3 4.6-20.4 10.9-30.2 18.8-9.9 8-18.8 18.3-26.8 31.1-8.8 13.2-15.4 28.3-19.8 45.2-4.4 16.9-7.5 32.6-9.1 47.3-2.1 17.3-3 34.6-2.5 52-3.8 4.6-6.5 9.3-8.2 14.3-1.7 4.6-2.8 10-3.4 16.4-0.6 6.4 0.3 13.5 2.8 21.2 2.1 7.8 4.6 13.7 7.5 17.8 2.9 4.1 5.7 7.3 8.2 9.5 3 2.3 5.9 3.9 8.8 4.8 2.1 7.8 4.2 15.1 6.3 21.9 2.1 6 4.4 11.8 6.9 17.5 2.5 5.7 5.5 10.2 8.8 13.3 7.1 6.4 13.6 12.7 19.5 18.8 5.9 6.2 9.2 14.5 10.1 25 0.4 7.3 0.6 13.9 0.6 19.8s-1 11.6-3.2 17.1c-2.1 5.5-5.5 11-10.1 16.5-4.6 5.4-11.3 11.2-20.1 17.1-11.3 7.7-24.3 13.7-39.1 17.8-8.1 2.3-16 4.7-23.8 7.4-10.7-4.1-21.7-7.7-33-10.9-12.4-3.4-23.6-7.4-33.7-12-20.1-9.1-33.2-19.7-39-31.7-5.9-12.1-8.4-24.3-7.5-36.6l62.3-10.9c6.7-10 12.8-21.5 18.3-34.2 4.6-10.9 9.1-23.9 13.5-38.9 4.4-15.1 7-32.2 7.9-51.3 0.8-12.3 0.3-27.2-1.6-44.8-1.9-17.5-5.3-35.7-10.4-54.7-5-18.9-11.7-37.6-19.8-56.1-8.2-18.5-18.4-35.1-30.5-49.9-12.2-14.8-26.4-26.8-42.8-35.9-16.4-9.1-34.8-13.7-55.4-13.7-4.6 0-9 0.1-13.2 0.4-4.2 0.2-8.6 0.6-13.2 1-15.9 0-31.9 3-47.8 8.9-27.7 8.6-49.6 22-65.8 40-16.2 18-28.3 38.3-36.5 60.9-8.2 22.5-13.3 46.3-15.4 71.1-2.1 24.8-3.2 48.2-3.2 70.1 0 26.4 2.1 48 6.3 64.6 4.2 16.6 8.8 29.7 13.9 39.3 5.9 11.4 12.6 19.8 20.1 25.3l54.1 8.9c0.4 5.9 0.4 11.5 0 16.8-0.4 5.2-1.8 10.3-4.1 15-2.3 4.8-5.7 9.5-10.1 14.3-4.4 4.8-10.6 9.9-18.5 15.4-10.9 7.7-23.6 13.5-38.1 17.4-14.5 3.9-28.4 8.4-41.8 13.7-13.4 5.2-25.3 12.2-35.6 20.8-10.3 8.7-16.7 21.5-19.2 38.3-3.8 29.2-4.5 53-2.2 71.5s5.5 29.5 9.7 33.1c3.8 3.2 14.7 7 32.7 11.3 18 4.4 38.9 8.5 62.6 12.7 23.7 4.1 48.2 7.5 73.3 10.3 25.2 2.7 46.8 4.1 64.8 4.1 12.2 0 26.4-0.7 42.8-2.1 16.4-1.4 33.5-3.2 51.3-5.4 17.8-2.3 35.5-4.9 53.2-7.9 8-1.4 16.1-2.8 24.1-4.3 4.6 0.8 9.6 1.7 14.8 2.6 13.9 2.2 29.3 4.4 46.3 6.5 17 2.1 34.1 3.9 51.3 5.5 17.2 1.6 33.9 2.9 50.1 3.7 16.2 0.9 30.3 1.4 42.5 1.4s26.6-0.4 43.2-1.4c16.6-0.9 33.9-2.1 52-3.7s36-3.6 53.8-5.8c17.8-2.3 34-4.9 48.5-7.9s26.7-6.1 36.5-9.3c9.9-3.2 15.8-6.4 18-9.5 2.9-5.1 5.1-12.3 6.6-22 1.5-9.5 2.2-19.8 2.2-30.7 0-10.7-0.5-21.5-1.6-32.2zM479.3 262.8l19.2 16.2c7.7 6.4 11.7 9.7 15.9 14.2 0.9 1 2.1 1.6 3.4 1.6 1.3 0 2.5-0.6 3.4-1.6 5.5-6 10.6-10.1 24.1-21.3l10.9-9c18.1-14.8 51.6-42.6 51.6-81 0-35.2-24.9-54.3-48.3-54.3-15.9 0-30.6 8-41.7 22.7-11.1-14.7-25.8-22.6-41.6-22.6-23.4 0-48.4 19.1-48.4 54.6 0 36.5 29.8 61.9 51.5 80.5z" fill="#94A2B1" /></svg>