<?xml version="1.0" standalone="no"?><!DOCTYPE svg PUBLIC "-//W3C//DTD SVG 1.1//EN" "http://www.w3.org/Graphics/SVG/1.1/DTD/svg11.dtd"><svg class="icon" width="200px" height="200.00px" viewBox="0 0 1024 1024" version="1.1" xmlns="http://www.w3.org/2000/svg"><path d="M839 85.3H185c-37.7 0-71.3 27.4-71.3 62.5v728.3c0 35.2 33.5 62.5 71.3 62.5h654c37.7 0 71.3-27.4 71.3-62.5V147.9c-0.1-35.2-33.6-62.6-71.3-62.6zM678.7 289.9l17.2-41.6 17.2 41.6h41.2L720 317.6l17.2 48.5-37.9-31.1-41.2 31.2 13.7-48.5-34.3-27.7h41.2z m65.2 336.3l-20.6-17.3-27.5 17.3 10.3-27.7-17.1-13.9h24l10.3-24.3 6.9 24.3h24l-20.6 13.9 10.3 27.7zM599.8 428.6l10.3-31.2 10.3 31.2h30.9l-27.5 20.8 10.3 34.7-27.5-20.8-27.5 20.8 10.3-34.7-24-20.8h34.4z m-54.9 353.6c-151 0-274.6-124.8-274.6-277.3 0-145.6 106.4-263.5 247.2-277.3-37.8 48.5-61.8 107.5-61.8 173.3 0 152.5 123.6 277.3 274.6 277.3H768c-48.1 62.4-137.3 104-223.1 104z" fill="#C151F7" /></svg>