<?xml version="1.0" standalone="no"?><!DOCTYPE svg PUBLIC "-//W3C//DTD SVG 1.1//EN" "http://www.w3.org/Graphics/SVG/1.1/DTD/svg11.dtd"><svg class="icon" width="200px" height="200.00px" viewBox="0 0 1024 1024" version="1.1" xmlns="http://www.w3.org/2000/svg"><path d="M697.4 795.3c-0.4 9.6-2.1 16.3-5.1 19.4-2.5 2.7-7.4 4-14.6 4H347.4c-11.7 0-18.9-1.2-19.7-23.4-4.5-118.7-10.8-290.5-14.6-401H712c-3.6 106.6-9.9 275.1-14.6 401z" fill="#3AADFF" /><path d="M797 208.7c-1.6-5.4-3.5-11.4-5.3-17.8-11.2-37.2-33-62.3-64.9-74.5-26.5-10.2-55.5-10.2-81.1-10.2H378.5c-25.6 0-54.5 0-81 10.2-31.8 12.2-53.6 37.3-64.8 74.5-1.9 6.4-3.7 12.2-5.3 17.7-15.5 51.1-19.6 64.9-19.6 95 0 30.4 16.5 467.7 17.3 486.2 1.6 43.5 12.5 74.8 33.4 95.9 21.1 21.3 52 31.8 94.3 31.8h319c42.3 0 73.2-10.4 94.3-31.8 20.9-21.1 31.8-52.4 33.4-95.9 0.7-18.6 17.3-455.9 17.3-486.3-0.2-29.9-4.4-43.7-19.8-94.8z m-116.1-27.1c0-7.4 6-13.4 13.3-13.4 7.3 0 13.3 6 13.3 13.4v15.9c0 7.4-6 13.4-13.3 13.4-7.3 0-13.3-6-13.3-13.4v-15.9z m-43.4 0c0-7.4 6-13.4 13.3-13.4 7.3 0 13.3 6 13.3 13.4v15.9c0 7.4-6 13.4-13.3 13.4-7.3 0-13.3-6-13.3-13.4v-15.9z m-30.2-13.5c7.3 0 13.3 6 13.3 13.4v15.9c0 7.4-6 13.4-13.3 13.4-7.3 0-13.3-6-13.3-13.4v-15.9c0.1-7.3 6.1-13.4 13.3-13.4z m127 628.6c-0.7 19.3-5.6 33.6-15.1 43.7-9.8 10.4-23.6 15.6-41.5 15.6H347.4c-17.7 0-31.6-5.2-41.4-15.6-9.5-10.1-14.5-24.5-15.2-43.8-4.7-125.8-11.6-311.5-15.3-420.5-0.2-5.1 1.7-10 5.2-13.6 3.5-3.6 8.3-5.7 13.3-5.7h437.2c5 0 9.8 2 13.3 5.7 3.5 3.6 5.4 8.5 5.2 13.6-3.7 104.9-10.4 286.8-15.4 420.6z m-3.2-502.6H294c-10.2 0-18.4-8.3-18.4-18.7 0-10.3 8.3-18.6 18.4-18.6h437.2c10.2 0 18.4 8.3 18.4 18.6s-8.3 18.7-18.5 18.7z" fill="#3AADFF" /></svg>