<?xml version="1.0" standalone="no"?><!DOCTYPE svg PUBLIC "-//W3C//DTD SVG 1.1//EN" "http://www.w3.org/Graphics/SVG/1.1/DTD/svg11.dtd"><svg class="icon" width="200px" height="200.00px" viewBox="0 0 1024 1024" version="1.1" xmlns="http://www.w3.org/2000/svg"><path d="M114 837.9c0 44.1 35.7 79.8 79.8 79.8h636.8c44.2 0 79.8-35.7 79.8-79.8V462.6H114v375.3z m180.1-205.6l6.8-6.8c8.5-8.6 22.1-8.1 30.6 0.4l124 122.7 237-237.8c11.5-9.8 28.9-8.6 37.8 3.4 10.2 11.5 8.9 29.1-2.5 38.9l-257 258.7c-8.5 8.6-22.1 8.1-30.6-0.4l-146.1-148-0.4-0.4c-8.5-8.5-8.1-22.1 0.4-30.7zM830.6 223.3h-90.9v-90c0-14.9-11.9-26.3-26.3-26.3s-26.3 11.9-26.3 26.3v90h-354v-90c0-14.9-11.9-26.3-26.3-26.3s-26.3 11.9-26.3 26.3v90h-86.6c-44.2 0-79.8 35.7-79.8 79.8v102.6h796.4V303.1c-0.1-44.2-35.7-79.8-79.9-79.8z" fill="#FFCA3A" /></svg>