<?xml version="1.0" standalone="no"?><!DOCTYPE svg PUBLIC "-//W3C//DTD SVG 1.1//EN" "http://www.w3.org/Graphics/SVG/1.1/DTD/svg11.dtd"><svg t="1743126065697" class="icon" viewBox="0 0 1448 1024" version="1.1" xmlns="http://www.w3.org/2000/svg" p-id="5917" xmlns:xlink="http://www.w3.org/1999/xlink" width="282.8125" height="200"><path d="M516.129376 621.778142v85.129601c0 14.255164 10.411621 20.665123 23.146396 14.267327l81.24957-40.892373v-31.879509l-81.24957-40.892373c-12.722612-6.409959-23.146397 0.012163-23.146396 14.267327z m345.578258-183.322382c35.735215 0 64.805046-29.057668 64.805046-64.792882 0-35.735215-29.069831-64.792883-64.805046-64.792883-35.723052 0-64.792883 29.069831-64.792883 64.792883 0 35.723052 29.069831 64.792883 64.792883 64.792882z m-205.179489-0.377056c46.438751 0 84.229531-37.79078 84.229531-84.229531 0-46.450914-37.79078-84.229531-84.229531-84.229531-46.450914 0-84.241694 37.79078-84.241694 84.229531s37.79078 84.229531 84.241694 84.229531z m0 0" fill="#FF4A08" p-id="5918"></path><path d="M1051.938662 63.990117H394.303674c-66.03352 0-119.563363 53.529844-119.563364 119.575527v657.622825c0 66.03352 53.529844 119.563363 119.563364 119.563363h657.622825c66.03352 0 119.563363-53.529844 119.563363-119.563363V183.553481c0.012163-66.03352-53.51768-119.563363-119.5512-119.563364zM656.528145 213.450403c52.593284 0 98.496858 29.081994 122.543325 72.005607 21.638171-20.288066 50.708002-32.755253 82.648327-32.755253 66.702491 0 120.962121 54.25963 120.962121 120.962121s-54.271793 120.962121-120.962121 120.962121c-40.296381 0-76.019432-19.825868-98.022497-50.221478-25.773628 30.456425-64.23338 49.844421-107.156992 49.844421-77.41819 0-140.398769-62.980579-140.398769-140.398769-0.012163-77.41819 62.968416-140.398769 140.386606-140.39877zM984.117165 705.460333c0 58.358598-47.472615 105.831213-105.831213 105.831213h-151.917234c-45.781943 0-84.874176-29.240115-99.579375-70.023019l-85.445842 41.257266c-9.183147 4.439535-18.4636 6.677547-27.610258 6.677547-29.884759 0-51.571583-23.718063-51.571583-56.376011V596.053166c0-32.670111 21.698987-56.388174 51.583746-56.388174 9.134495 0 18.42711 2.250175 27.598095 6.677547l85.239069 41.159961c14.534915-41.123472 53.785269-70.679828 99.798311-70.679827h151.917234c58.358598 0 105.831213 47.484778 105.831213 105.831213L984.117165 705.460333z m0 0" fill="#FF4A08" p-id="5919"></path><path d="M878.273789 572.979748h-151.917234c-27.391322 0-49.674138 22.282816-49.674138 49.674138V705.460333c0 27.391322 22.282816 49.674138 49.674138 49.674138h151.917234c27.391322 0 49.674138-22.282816 49.674138-49.674138v-82.794284c0-27.391322-22.282816-49.686301-49.674138-49.686301z m0 0" fill="#FF4A08" p-id="5920"></path></svg>