<?xml version="1.0" standalone="no"?><!DOCTYPE svg PUBLIC "-//W3C//DTD SVG 1.1//EN" "http://www.w3.org/Graphics/SVG/1.1/DTD/svg11.dtd"><svg class="icon" width="200px" height="200.00px" viewBox="0 0 1024 1024" version="1.1" xmlns="http://www.w3.org/2000/svg"><path d="M512 62C263.5 62 62 263.5 62 512s201.5 450 450 450 450-201.5 450-450S760.5 62 512 62z m147.8 596.6c0 21-10.9 31.8-32.6 31.8h-32.6l-7-26.4 30.7 1.2c9.7 0 14.7-4.3 14.7-12.4v-84.6h-71c15.5 23.7 30.3 49.3 43.8 76.4l-22.5 11.3c-3.5-7.8-7-14.7-10.1-21.3-29.9 5.4-77.2 12-142 19.4l-6.6-25.2c6.2-0.8 10.1-2.3 12-4.7 10.1-15.5 19.4-34.1 28.7-55.9h-73.7v122.2h-26.8V543H475c3.1-8.5 5.8-17.8 8.9-27.2h-95.4V408.3h26.8v84.2H609v-84.2h26.8v107.5H511.2c-3.1 9.7-6.2 18.6-9.3 27.2h157.9v115.6zM437.5 418.4l12-17.8c24.4 8.9 47.7 19 70.2 29.9 15.9-10.1 30.3-21 43.5-33.4l19.8 12c-13.6 12.4-27.2 23.3-40.4 32.6 16.7 8.5 32.6 17.8 48.1 27.5L578 488.7c-19-12.4-38-23.7-57-33.4-20.2 11.3-45.4 22.5-76.4 33.4l-12.4-20.2c24.1-7 45.4-15.1 64.8-25.2-19.9-9.4-39.7-17.9-59.5-24.9z m241-27.9h-333v-26h156.8c-4.3-10.1-8.9-19-13.6-27.5l28.7-4.7c4.7 9.3 8.9 20.2 12.8 32.2h148.2v26z" fill="#A5B2BE" /><path d="M463.9 626c34.1-3.5 66.7-7.8 97.8-13.2-7.8-13.6-15.1-26-22.5-37.6l14.4-7h-61.3c-9.4 22.5-19.1 41.5-28.4 57.8z" fill="#A5B2BE" /></svg>