<?xml version="1.0" standalone="no"?><!DOCTYPE svg PUBLIC "-//W3C//DTD SVG 1.1//EN" "http://www.w3.org/Graphics/SVG/1.1/DTD/svg11.dtd"><svg class="icon" width="200px" height="200.00px" viewBox="0 0 1024 1024" version="1.1" xmlns="http://www.w3.org/2000/svg"><path d="M910.4 803.8v73c0 34.6-33.5 61.5-71.3 61.5H185.3c-37.7 0-71.3-26.9-71.3-61.5V146.5c0-34.6 33.5-61.5 71.3-61.5h653.9c37.7 0 71.3 26.9 71.3 61.5v657.3z" fill="#FFCA3A" /><path d="M548.5 578.3v-83.8h108.3v-26.8H548.5v-62.1h121.8v-27.2H429.4c5.4-13.2 10.5-26.8 14.7-41.5l-29.1-5.4c-13.6 50.4-40 90.4-79.2 119.9l18.6 23.3c24.8-18.6 45-41.5 61.3-69.1h104.4v62.1H404.9v110.6h-64v27.2h179.3V692h28.3v-86.5h134.2v-27.2H548.5z" fill="#FFFFFF" /><path d="M432.8 494.5h87.3v83.8h-87.3z" fill="#FFCA3A" /></svg>