<?xml version="1.0" standalone="no"?><!DOCTYPE svg PUBLIC "-//W3C//DTD SVG 1.1//EN" "http://www.w3.org/Graphics/SVG/1.1/DTD/svg11.dtd"><svg class="icon" width="200px" height="200.00px" viewBox="0 0 1024 1024" version="1.1" xmlns="http://www.w3.org/2000/svg"><path d="M793.8 228.7c-16-15.9-37.7-24.8-60.3-24.8h-68.3v-50.7c0-28-22.9-50.7-51.2-50.7H409.2c-28.3 0-51.2 22.7-51.2 50.7v50.7h-68.3c-47.1 0-85.3 37.9-85.3 84.6V779c0 46.7 38.2 84.6 85.3 84.6h51.2V889c0 14 11.5 25.4 25.6 25.4 14.1 0 25.6-11.4 25.6-25.4v-25.4H631V889c0 14 11.5 25.4 25.6 25.4 14.1 0 25.6-11.4 25.6-25.4v-25.4h51.2c47.1 0 85.3-37.9 85.3-84.6V288.5c0.1-22.5-8.9-44-24.9-59.8z m-384.6-58.6c0-4.5 1.8-8.8 5-12 3.2-3.2 7.5-5 12.1-5H597c9.4 0 17.1 7.6 17.1 16.9v33.8H409.2v-33.7z m34.1 532.8c0 14-11.5 25.4-25.6 25.4-14.1 0-25.6-11.4-25.6-25.4V364.6c0-14 11.5-25.4 25.6-25.4 14.1 0 25.6 11.4 25.6 25.4v338.3z m187.8 0c0 14-11.5 25.4-25.6 25.4-14.1 0-25.6-11.4-25.6-25.4V364.6c0-14 11.5-25.4 25.6-25.4 14.1 0 25.6 11.4 25.6 25.4v338.3z" fill="#94A2B1" /></svg>