<?xml version="1.0" standalone="no"?><!DOCTYPE svg PUBLIC "-//W3C//DTD SVG 1.1//EN" "http://www.w3.org/Graphics/SVG/1.1/DTD/svg11.dtd"><svg t="1743125696377" class="icon" viewBox="0 0 1024 1024" version="1.1" xmlns="http://www.w3.org/2000/svg" p-id="2198" xmlns:xlink="http://www.w3.org/1999/xlink" width="200" height="200"><path d="M776.704 988.16H247.296c-84.48 0-153.6-69.632-153.6-154.624V190.464C93.696 105.472 162.816 35.84 247.296 35.84h378.88c40.96 0 79.36 18.944 104.448 50.688L901.12 304.64c18.432 23.552 28.672 53.248 28.672 82.944v445.952c0.512 84.992-68.608 154.624-153.088 154.624z" fill="#FFEEEF" p-id="2199"></path><path d="M776.704 1024H247.296c-104.448 0-189.44-85.504-189.44-190.464V190.464C57.856 85.504 142.848 0 247.296 0h378.88c52.224 0 100.352 23.552 132.608 65.024l170.496 217.6c23.552 29.696 36.352 67.072 36.352 104.96v445.952c0.512 104.96-84.48 190.464-188.928 190.464zM247.296 72.192c-65.024 0-117.76 53.248-117.76 118.272v643.072c0 65.536 52.736 118.272 117.76 118.272h528.896c65.024 0 117.76-53.248 117.76-118.272V387.584c0-21.504-7.168-43.008-20.992-60.928l-170.496-217.6c-18.432-23.552-46.592-36.864-76.288-36.864h-378.88z" fill="#FFB8BE" p-id="2200"></path><path d="M302.592 792.576c-10.24 0-19.456-4.096-23.04-5.632-17.92-7.68-28.672-23.552-28.672-43.008 0-12.288 0-50.688 140.8-111.616 31.744-57.856 56.32-115.712 73.216-172.032-15.872-33.792-54.272-118.784-27.136-164.352 7.68-15.872 26.624-25.6 48.128-25.6 15.872 0 30.72 7.68 40.448 19.968 20.48 28.672 17.92 86.016-6.144 161.28 20.48 37.888 48.64 74.752 83.968 110.08l4.096-0.512c28.672-4.608 55.296-9.216 84.48-9.216 34.304 1.536 57.856 9.728 70.656 25.088 9.728 11.776 10.24 24.576 9.216 31.232 1.536 15.36-1.536 27.648-9.728 36.352-15.36 16.896-44.032 16.896-62.464 16.896-38.4-2.56-75.264-17.408-107.52-43.008-53.76 11.776-106.496 28.16-165.376 52.224-45.056 80.896-87.04 121.856-124.928 121.856z m33.28-75.264c-6.144 4.096-11.264 8.704-16.896 13.824 6.656-3.584 11.776-8.192 16.896-13.824z m159.744-182.272c-9.728 25.088-22.016 51.712-36.352 80.384 26.624-8.704 53.76-16.384 81.408-23.04l-5.12-5.12h6.144c-14.336-16.896-29.184-35.328-43.52-53.76l-2.56 1.536z m185.344 70.656c6.656 1.536 13.824 2.56 22.016 2.56h1.024c2.56 0.512 5.12 1.024 7.68 1.024s4.608 0 7.168-0.512c-4.608-1.536-11.776-3.072-24.064-3.072H680.96z m-195.584-281.6c-3.584 16.896-2.56 34.304 2.048 51.2 3.072-16.896 2.56-34.304-0.512-51.2h-1.536z" fill="#FF5462" p-id="2201"></path></svg>