<?xml version="1.0" standalone="no"?><!DOCTYPE svg PUBLIC "-//W3C//DTD SVG 1.1//EN" "http://www.w3.org/Graphics/SVG/1.1/DTD/svg11.dtd"><svg t="1743125851649" class="icon" viewBox="0 0 1024 1024" version="1.1" xmlns="http://www.w3.org/2000/svg" p-id="2520" xmlns:xlink="http://www.w3.org/1999/xlink" width="200" height="200"><path d="M776.704 988.16H247.296c-84.48 0-153.6-69.632-153.6-154.624V190.464C93.696 105.472 162.816 35.84 247.296 35.84h378.88c40.96 0 79.36 18.944 104.448 50.688L901.12 304.64c18.432 23.552 28.672 53.248 28.672 82.944v445.952c0.512 84.992-68.608 154.624-153.088 154.624z" fill="#FFF0EB" p-id="2521"></path><path d="M776.704 1024H247.296c-104.448 0-189.44-85.504-189.44-190.464V190.464C57.856 85.504 142.848 0 247.296 0h378.88c52.224 0 100.352 23.552 132.608 65.024l170.496 217.6c23.552 29.696 36.352 67.072 36.352 104.96v445.952c0.512 104.96-84.48 190.464-188.928 190.464zM247.296 72.192c-65.024 0-117.76 53.248-117.76 118.272v643.072c0 65.536 52.736 118.272 117.76 118.272h528.896c65.024 0 117.76-53.248 117.76-118.272V387.584c0-21.504-7.168-43.008-20.992-60.928l-170.496-217.6c-18.432-23.552-46.592-36.864-76.288-36.864h-378.88z" fill="#FFC1AC" p-id="2522"></path><path d="M359.424 768V337.92h145.408c123.904 0 167.936 37.888 167.936 144.384 0 110.592-44.032 149.504-167.936 149.504H445.44V768H359.424zM445.44 565.248h46.08c69.12 0 92.672-20.48 92.672-80.384 0-58.88-25.088-80.384-92.672-80.384h-46.08v160.768z" fill="#FF6A38" p-id="2523"></path></svg>