<?xml version="1.0" standalone="no"?><!DOCTYPE svg PUBLIC "-//W3C//DTD SVG 1.1//EN" "http://www.w3.org/Graphics/SVG/1.1/DTD/svg11.dtd"><svg class="icon" width="200px" height="200.00px" viewBox="0 0 1024 1024" version="1.1" xmlns="http://www.w3.org/2000/svg"><path d="M543.3 629c0-86.7 70.3-156.9 157-156.9 51.6 0 97 25.2 125.6 63.6V126.8c0-34.7-13.9-62.8-48.6-62.8H183.6c-34.7 0-48.6 28.1-48.6 62.8v690.5c0 34.7 13.9 62.8 48.6 62.8h261.5l143.6-140.9c-28-28.3-45.4-67.2-45.4-110.2zM323.4 189.5h314.1c17.3 0 31.4 12.7 31.4 28.4s-14.1 28.4-31.4 28.4H323.4c-17.3 0-31.4-12.7-31.4-28.4 0-15.6 14.1-28.4 31.4-28.4z m0 157h314.1c17.3 0 31.4 12.7 31.4 28.4s-14.1 28.4-31.4 28.4H323.4c-17.3 0-31.4-12.7-31.4-28.4s14.1-28.4 31.4-28.4z m125.7 213.8H323.4c-17.3 0-31.4-12.7-31.4-28.4s14.1-28.4 31.4-28.4H449c17.3 0 31.4 12.7 31.4 28.4 0.1 15.7-14 28.4-31.3 28.4z" fill="#B451F7" /><path d="M825.7 834.5L722.8 720.1c41.1-10.1 71.7-46.9 71.7-91.2 0-52-42.2-94.2-94.2-94.2s-94.2 42.2-94.2 94.2c0 44.2 30.6 81 71.7 91.2L574.7 834.5c-34.7 0-62.8 28.1-62.8 62.8 0 34.7 28.1 62.8 62.8 62.8H826c34.7 0 62.8-28.1 62.8-62.8 0-34.7-28.1-62.8-63.1-62.8z" fill="#B451F7" /></svg>