<?xml version="1.0" standalone="no"?><!DOCTYPE svg PUBLIC "-//W3C//DTD SVG 1.1//EN" "http://www.w3.org/Graphics/SVG/1.1/DTD/svg11.dtd"><svg class="icon" width="200px" height="200.00px" viewBox="0 0 1024 1024" version="1.1" xmlns="http://www.w3.org/2000/svg"><path d="M843.6 161c-19.6-20.6-46.1-31.4-73.6-31.4h-73.1v40.7H770c35.5 0 64.1 29.3 64.1 65.6V251H189.2v-15.2c0-36.3 28.6-65.6 64.1-65.6h74.5V129h-74.5C195.6 129 149 177.3 149 235.9v221.6h0.1c-0.1 1.4-0.1 2.8-0.1 4.2v374.7c0 55.2 44.8 100 100 100h525.2c55.2 0 100-44.8 100-100V461.6c0-1.4 0-2.8-0.1-4.2h0.2V346.9 236.4c0-28.2-11.1-55.3-30.7-75.4zM419.7 740.5H294.1c-17.3 0-31.4-12.7-31.4-28.4s14.1-28.4 31.4-28.4h125.6c17.3 0 31.4 12.7 31.4 28.4 0.1 15.7-14 28.4-31.4 28.4z m188.5-156.4H294.1c-17.3 0-31.4-12.7-31.4-28.4s14.1-28.4 31.4-28.4h314.1c17.3 0 31.4 12.7 31.4 28.4s-14.1 28.4-31.4 28.4z m0-156.5H294.1c-17.3 0-31.4-12.7-31.4-28.4s14.1-28.4 31.4-28.4h314.1c17.3 0 31.4 12.7 31.4 28.4s-14.1 28.4-31.4 28.4z" fill="#FF5B5B" /><path d="M348.2 224.8c-11.3 0-20.5-9.3-20.5-20.9v-95.1c0-11.5 9.2-20.9 20.5-20.9s20.5 9.3 20.5 20.9v95.1c0 11.6-9.2 20.9-20.5 20.9zM368.7 129h287v41h-287zM676.2 224.8c-11.3 0-20.5-9.3-20.5-20.9v-95.1c0-11.5 9.2-20.9 20.5-20.9s20.5 9.3 20.5 20.9v95.1c0 11.6-9.2 20.9-20.5 20.9z" fill="#FF5B5B" /></svg>