<?xml version="1.0" standalone="no"?><!DOCTYPE svg PUBLIC "-//W3C//DTD SVG 1.1//EN" "http://www.w3.org/Graphics/SVG/1.1/DTD/svg11.dtd"><svg class="icon" width="200px" height="200.00px" viewBox="0 0 1024 1024" version="1.1" xmlns="http://www.w3.org/2000/svg"><path d="M512 62C263.5 62 62 263.5 62 512s201.5 450 450 450 450-201.5 450-450S760.5 62 512 62z m158.7 623c-62.9-38-114.1-108.6-154-211.1-2.3-6.2-4.3-11.6-6.2-16.3-25.6 98.9-79.2 175-160.6 227.8l-16.7-23.7c83-54.3 137-133.5 161.8-236.7-17.8-32.6-39.2-57.4-64-75.3l23.3-14.7c34.5 24.1 63.6 67.9 87.7 130.8 36.5 92.7 85 158.3 146.3 196.7L670.7 685z" fill="#51A9FA" /></svg>