<?xml version="1.0" standalone="no"?><!DOCTYPE svg PUBLIC "-//W3C//DTD SVG 1.1//EN" "http://www.w3.org/Graphics/SVG/1.1/DTD/svg11.dtd"><svg class="icon" width="200px" height="200.00px" viewBox="0 0 1024 1024" version="1.1" xmlns="http://www.w3.org/2000/svg"><path d="M742.6 483.8c30.3 0 60.3 5.9 88.4 17.3V354.9c0-42.2-34.8-76.7-77.3-76.7H621.1v-76.7c0-42.2-34.8-76.7-77.3-76.7H389.1c-42.5 0-77.3 34.5-77.3 76.7v76.7H179.2c-42.5 0-77.3 34.5-77.3 76.7V777c0 42.2 34.8 76.7 77.3 76.7h381.4c-31.2-38.9-50-88-50-141.4 0-126.2 103.9-228.5 232-228.5zM375.3 193h159.5v68.4H375.3V193z" fill="#94A2B1" /><path d="M739.8 534.8c-100.7 0-182.3 81.6-182.3 182.3 0 100.7 81.6 182.3 182.3 182.3 100.7 0 182.3-81.6 182.3-182.3 0-100.7-81.6-182.3-182.3-182.3z m96.9 205H722.8c-2 0-3.9-0.5-5.7-1.1-1.8 0.6-3.7 1.1-5.7 1.1-9.4 0-17.1-7.1-17.1-15.8V618.9c0-8.7 7.7-15.8 17.1-15.8 9.4 0 17.1 7.1 17.1 15.8v89.4h108.2c9.4 0 17.1 7.1 17.1 15.8 0 8.7-7.7 15.7-17.1 15.7z" fill="#94A2B1" /></svg>