<?xml version="1.0" standalone="no"?><!DOCTYPE svg PUBLIC "-//W3C//DTD SVG 1.1//EN" "http://www.w3.org/Graphics/SVG/1.1/DTD/svg11.dtd"><svg class="icon" width="200px" height="200.00px" viewBox="0 0 1024 1024" version="1.1" xmlns="http://www.w3.org/2000/svg"><path d="M839.2 85H185.3c-37.7 0-71.3 26.9-71.3 61.5v730.3c0 34.6 33.5 61.5 71.3 61.5h653.9c37.7 0 71.3-26.9 71.3-61.5V146.5c-0.1-34.6-33.6-61.5-71.3-61.5zM353.7 678l-19-21.7c38-33.4 67.5-73.7 88.5-120.3-22.5-31.4-47.7-63.6-75.7-96.6l20.2-19.4c24.1 28.3 46.6 56.6 67.5 85 12.4-37.2 20.6-77.2 23.7-119.9H345.5v-26.8h140.1v21.3c-3.1 56.6-13.2 107.5-30.7 152.9 17.5 24.8 33.4 50.1 48.1 74.9l-21.3 21.7c-11.6-21.7-25.2-43.5-40-66-21.7 43.9-50.8 82.3-88 114.9z m316.2 9.7c-32.6-33.4-59.8-67.1-80.7-101.3-24.8 35.3-54.7 69.1-89.6 101.3l-19-23.3c37.2-33 68.3-67.9 93.1-104.4-30.7-56.6-47.7-114.8-51.2-175h-12.8v-26.8h159.5V383c-8.5 62.9-29.5 121.8-63.2 177.7 21.7 35.7 49.3 70.2 83.4 104l-19.5 23z" fill="#FA6986" /><path d="M547.7 385.1c3.1 51.2 17.5 100.5 42.7 148.6 26.4-46.6 43.8-96.2 52.4-148.6h-95.1z" fill="#FA6986" /></svg>