<?xml version="1.0" standalone="no"?><!DOCTYPE svg PUBLIC "-//W3C//DTD SVG 1.1//EN" "http://www.w3.org/Graphics/SVG/1.1/DTD/svg11.dtd"><svg class="icon" width="200px" height="200.00px" viewBox="0 0 1024 1024" version="1.1" xmlns="http://www.w3.org/2000/svg"><path d="M194.5 207h679.8c19.6 0 35.4-15.8 35.4-35.2 0-19.4-15.9-35.2-35.4-35.2H194.5c-19.6 0-35.4 15.7-35.4 35.2 0 19.5 15.8 35.2 35.4 35.2zM871.2 277.4H174.5c-21.5 0-38.9 17.3-38.9 38v408.8c0 86.2 79.7 163.2 170.6 163.2h448.2c87.3 0 155.3-72.4 155.3-163.2V315.4c0-20.7-17-38-38.5-38zM698.5 617.1c-0.1 0.9-0.2 1.9-0.3 2.8-0.1 0.3-0.1 0.6-0.2 0.9-0.1 0.6-0.2 1.2-0.4 1.8-0.1 0.4-0.2 0.7-0.3 1.1-0.2 0.5-0.3 1.1-0.5 1.6-0.1 0.4-0.3 0.7-0.4 1.1l-0.6 1.5c-0.2 0.4-0.3 0.7-0.5 1.1-0.2 0.5-0.5 0.9-0.7 1.4-0.2 0.4-0.4 0.7-0.6 1-0.3 0.4-0.5 0.9-0.8 1.3-0.2 0.3-0.5 0.6-0.7 1l-0.9 1.2c-0.2 0.3-0.5 0.6-0.8 0.9-0.3 0.4-0.7 0.7-1 1.1l-0.8 0.8c-0.4 0.3-0.7 0.7-1.1 1-0.3 0.3-0.6 0.5-0.9 0.8l-1.2 0.9c-0.3 0.2-0.6 0.4-0.9 0.7-0.4 0.3-0.9 0.5-1.3 0.8-0.3 0.2-0.6 0.4-1 0.6-0.5 0.3-1 0.5-1.4 0.7-0.3 0.2-0.6 0.3-1 0.4-0.5 0.2-1.1 0.4-1.7 0.6-0.3 0.1-0.6 0.2-0.8 0.3-0.9 0.3-1.7 0.4-2.6 0.6-1.5 0.4-3.3 0.9-5.1 0.9H446c-0.1 0-0.2 0.3-0.1 0.4l47.9 49.9c11.3 12.3 11.3 29 0.1 41.3-5.5 5.9-12.8 9.4-20.3 9.4-8 0-15-3-20.3-8.8l-96.6-104.7c-6.7-6.1-10-13.7-10-22.4 0-16.5 12.1-28.4 28.7-28.4H670c13.8 0 25.3 11 27.9 25.2 0.2 1 0.3 2.3 0.3 3.3v0.1c0 0.2 0.2 0.3 0.2 0.5 0.1 0.9 0.2 1.8 0.2 2.6l0.1 0.1c-0.1 0.6-0.1 1.6-0.2 2.6 0-0.1 0-0.1 0 0z m-28.6-81.6H375.1c-12.9 0-23.9-7.4-27.5-18.5-0.1-0.3-0.1-0.2-0.2-0.4-0.1-0.5-0.3-0.9-0.4-1.5-0.2-0.9 0-1.7-0.1-2.6-0.1-0.9 0.2-1.7 0.2-2.6v-0.1c0-0.8-0.3-1.7-0.2-2.5 0-0.2-0.1-0.3-0.1-0.5 0.1-0.7 0.1-1.3 0.2-2 0.1-0.3 0.1-0.6 0.2-0.9 0.1-0.5 0.2-1 0.4-1.5l0.3-0.9c0.2-0.5 0.3-0.9 0.5-1.4 0.1-0.3 0.3-0.6 0.4-1l0.6-1.2c0.2-0.3 0.3-0.6 0.5-0.9 0.2-0.4 0.4-0.8 0.7-1.2l0.6-0.9c0.3-0.4 0.5-0.7 0.8-1.1 0.2-0.3 0.5-0.6 0.7-0.9 0.3-0.3 0.6-0.7 0.9-1l0.8-0.8c0.3-0.3 0.7-0.6 1-0.9 0.3-0.3 0.6-0.5 0.8-0.7 0.3-0.3 0.7-0.6 1.1-0.8 0.3-0.2 0.6-0.4 0.9-0.7 0.4-0.3 0.8-0.5 1.2-0.8 0.3-0.2 0.6-0.4 1-0.6 0.4-0.2 0.9-0.5 1.3-0.7 0.3-0.2 0.6-0.3 1-0.5 0.5-0.2 0.9-0.4 1.4-0.6 0.3-0.1 0.6-0.3 1-0.4 0.5-0.2 1.1-0.3 1.7-0.5 0.3-0.1 0.6-0.2 0.8-0.3 0.9-0.2 1.7 0.2 2.6 0 1.5-0.3 3.3-0.3 5.1-0.3h224.2c0.2 0 0.2-0.8 0.1-0.9l-48-43.6c-11.3-10.8-11.3-25.3-0.1-36 5.5-5.2 12.9-8.2 20.3-8.2 8 0 15 2.6 20.3 7.6l96.7 91.1c6.7 5.3 10 10.9 10 18.4-0.2 14.5-12.3 23.8-28.9 23.8z" fill="#94A2B1" /></svg>