<?xml version="1.0" standalone="no"?><!DOCTYPE svg PUBLIC "-//W3C//DTD SVG 1.1//EN" "http://www.w3.org/Graphics/SVG/1.1/DTD/svg11.dtd"><svg class="icon" width="200px" height="200.00px" viewBox="0 0 1024 1024" version="1.1" xmlns="http://www.w3.org/2000/svg"><path d="M369.8 116.7c0-17.6-12.5-31.4-28.4-31.4-15.9 0-28.4 13.8-28.4 31.4v25.5h56.9v-25.5z" fill="#D7D7D7" /><path d="M838.7 142.2H711.1v56.9h-56.9v-56.9H369.8v56.9h-56.9v-56.9H185.3c-55.2 0-100 44.8-100 100v596.4c0 55.2 44.8 100 100 100h653.3c55.2 0 100-44.8 100-100V242.2c0.1-55.2-44.7-100-99.9-100zM466 759.4l-11.8 10.5s-4.4 4.8-16.8 9.6-30.5 11.6-51.9 16.3c-6.1 0.9-17 2.8-15.7-11.1 1.3-14 10.3-38 15.2-53.4 6.3-14.6 11.1-19 20.1-28.3 9-9.4 134-134 134-134l58.1 58.3L466 759.4z m184.9-184c-3.2 4.8-6.2 7.3-20.7 21.9-2.9-2.9-61.3-62.3-61.3-62.3s15.3-14.3 16.2-15.2c0.9-0.9 20.9-18.7 46.5 2.3 6.2 5.5 31.6 30.5 19.3 53.3z m201.2-177.2H200.3c-16.6 0-29.6-12.5-29.6-28.4 0-15.9 13.1-28.4 29.6-28.4h651.8c16.6 0 29.6 12.5 29.6 28.4 0.1 15.9-13 28.4-29.6 28.4z" fill="#D7D7D7" /><path d="M711.1 116.7c0-17.6-12.5-31.4-28.4-31.4-15.9 0-28.4 13.8-28.4 31.4v25.5h56.9v-25.5z" fill="#D7D7D7" /></svg>