<?xml version="1.0" standalone="no"?><!DOCTYPE svg PUBLIC "-//W3C//DTD SVG 1.1//EN" "http://www.w3.org/Graphics/SVG/1.1/DTD/svg11.dtd"><svg class="icon" width="200px" height="200.00px" viewBox="0 0 1024 1024" version="1.1" xmlns="http://www.w3.org/2000/svg"><path d="M264 833.2c0-12-9-29.9-30.1-29.9h-90.2c-18 0-30.1 16.5-30.1 29.9 0 13.5 7.5 29.9 30.1 29.9H234c22.5 0 30-17.9 30-29.9zM143.8 234.9H234c22.5 0 30.1-18 30.1-29.9 0-12-9-29.9-30.1-29.9h-90.2c-18 0-30.1 16.5-30.1 29.9 0.1 13.5 7.6 29.9 30.1 29.9z" fill="#3AADFF" /><path d="M865.1 85.3H234c-22.5 0-45.1 22.4-45.1 44.9v15H234c34.6 0 60.1 23.9 60.1 59.8s-25.5 59.8-60.1 59.8h-45.1v89.7H234c34.6 0 60.1 23.9 60.1 59.8s-25.5 59.8-60.1 59.8h-45.1V564H234c34.6 0 60.1 23.9 60.1 59.8s-25.5 59.8-60.1 59.8h-45.1v89.7H234c34.6 0 60.1 23.9 60.1 59.8s-25.5 59.8-60.1 59.8h-45.1v15c0 22.4 22.5 44.9 45.1 44.9h631.1c22.5 0 45.1-22.4 45.1-44.9V130.2c0-22.4-22.5-44.9-45.1-44.9z m-85.6 605.8c-10.5 22.4-46.6 67.3-82.6 67.3-39.1 0-135.3-52.3-216.4-163-75.1-103.2-111.2-179.5-111.2-228.9 0-40.4 27.1-58.3 40.6-68.8l4.5-3c16.5-12 40.6-15 49.6-15 16.5 0 24 10.5 28.6 17.9 3 7.5 33.1 73.3 36.1 80.8 4.5 12 3 31.4-10.5 41.9l-3 1.5c-7.5 4.5-21 15-22.5 25.4-1.5 6 1.5 12 6 18 22.5 31.4 96.2 125.6 109.7 137.6 10.5 10.5 24 12 33.1 3 9-7.5 13.5-13.5 13.5-13.5l1.5-1.5c1.5 0 7.5-6 19.5-6 9 0 16.5 3 25.5 9 22.5 15 72.1 49.4 72.1 49.4h1.5c5.9 10.5 14.9 27 4.4 47.9z" fill="#3AADFF" /><path d="M143.8 653.7H234c22.5 0 30.1-18 30.1-29.9 0-12-9-29.9-30.1-29.9h-90.2c-18 0-30.1 16.5-30.1 29.9 0.1 13.5 7.6 29.9 30.1 29.9zM143.8 444.3H234c22.5 0 30.1-17.9 30.1-29.9s-9-29.9-30.1-29.9h-90.2c-18 0-30.1 16.5-30.1 29.9 0.1 13.5 7.6 29.9 30.1 29.9z" fill="#3AADFF" /></svg>