<?xml version="1.0" standalone="no"?><!DOCTYPE svg PUBLIC "-//W3C//DTD SVG 1.1//EN" "http://www.w3.org/Graphics/SVG/1.1/DTD/svg11.dtd"><svg class="icon" width="200px" height="200.00px" viewBox="0 0 1024 1024" version="1.1" xmlns="http://www.w3.org/2000/svg"><path d="M512.1 62C263.9 61.9 62.3 263.4 62 511.7 61.7 759.8 263 961.4 511.5 962c248.3 0.6 450.5-201.5 450.5-450.1C962 263.7 760.4 62.1 512.1 62z m-76.3 638.2C373.2 637.6 310.3 574.7 248 512.5c11.4-11.4 23.2-23.1 34.7-34.5 49.4 49.5 100.1 100.1 150.6 150.7 103-103.1 204.6-204.7 305.5-305.6 13.4 13.4 25.5 25.5 37.2 37.1-112.8 112.7-226.7 226.5-340.2 340z" fill="#00AAE8" /></svg>