<?xml version="1.0" standalone="no"?><!DOCTYPE svg PUBLIC "-//W3C//DTD SVG 1.1//EN" "http://www.w3.org/Graphics/SVG/1.1/DTD/svg11.dtd"><svg class="icon" width="200px" height="200.00px" viewBox="0 0 1024 1024" version="1.1" xmlns="http://www.w3.org/2000/svg"><path d="M739.6 711.1c-31.4 0-56.9-28.6-56.9-64s25.5-64 56.9-64 56.9 28.6 56.9 64c-0.1 35.4-25.5 64-56.9 64z m-113.8-60.4c0 9.8-8.4 17.7-18.7 17.7h-176c-10.3 0-18.7-7.9-18.7-17.7v-49.9c0-9.8 8.4-17.7 18.7-17.7h176c10.3 0 18.7 7.9 18.7 17.7v49.9z m-355.6 60.4c-31.4 0-56.9-28.6-56.9-64s25.5-64 56.9-64 56.9 28.6 56.9 64-25.5 64-56.9 64zM252 346.2l27.4-73.6 0.4-1.7c2.7-14.9 8.8-17.5 17.8-29h429.3c9.1 11.8 14.7 14.8 17.2 28.9l27.9 75.5 10.2 41c-2.3 30-38.1 53.7-67.8 53.7H309.6c-29.8 0-65.5-23.7-67.8-53.7l10.2-41.1z m691.7 23.3h-83.9c-4 0-7.7 1.2-11 3.1L811 255.3c-12.1-66.7-57.7-98.8-113.8-98.8H341.8c-64.4 0-103.4 43.2-113.8 98.8l-38 117.5c-3.5-2.1-7.4-3.4-11.6-3.4H94.5c-12.9 0-23.4 10.7-23.4 24.1v20.9c0 13.3 10.5 24 23.4 24l31.8 5.6c-10 20.2-15.8 43.3-15.8 70.1L98.7 652.4c0 4 0.3 8.1 0.8 12.2-0.4 2.5-0.8 5.1-0.8 7.8v166.4c0 23.7 18.7 42.9 41.7 42.9h63.7c23 0 41.7-19.2 41.7-42.9v-53.5h547.3v53.5c0 23.7 18.7 42.9 41.7 42.9h63.7c23 0 41.7-19.2 41.7-42.9V672.5c0-2.7-0.3-5.3-0.8-7.8 0.5-4.1 0.8-8.2 0.8-12.2l-11.8-138.4c0-26.9-5.7-50-15.8-70.3l31.1-5.4c12.9 0 23.4-10.8 23.4-24v-20.9c0-13.3-10.4-24-23.4-24z" fill="#68E261" /></svg>