<?xml version="1.0" standalone="no"?><!DOCTYPE svg PUBLIC "-//W3C//DTD SVG 1.1//EN" "http://www.w3.org/Graphics/SVG/1.1/DTD/svg11.dtd"><svg class="icon" width="200px" height="200.00px" viewBox="0 0 1024 1024" version="1.1" xmlns="http://www.w3.org/2000/svg"><path d="M762.3 606.4c41.3 0 82.5 13.6 114.6 36.2h4.6V109.2c0-27.1-18.3-45.2-45.9-45.2H147.9c-27.5 0-45.9 18.1-45.9 45.2v768.4c0 27.1 18.3 45.2 45.9 45.2h444.8c-22.9-31.6-36.7-72.3-36.7-113 0-113 91.7-203.4 206.3-203.4zM257.9 244.8h458.6c13.8 0 22.9 9 22.9 22.6 0 13.6-9.2 22.6-22.9 22.6H257.9c-13.8 0-22.9-9-22.9-22.6 0-13.6 9.2-22.6 22.9-22.6z m0 226h458.6c13.8 0 22.9 9 22.9 22.6 0 13.6-9.2 22.6-22.9 22.6H257.9c-13.8 0-22.9-9-22.9-22.6 0-13.5 9.2-22.6 22.9-22.6zM496.4 742h-243c-9.2 0-18.3-9-18.3-22.6 0-13.6 9.2-22.6 18.3-22.6h243c9.2 0 18.3 9 18.3 22.6 0 13.6-9.2 22.6-18.3 22.6z" fill="#94A2B1" /><path d="M773.9 652.9c-92-3.1-157.3 69.7-159.8 147.2-3.1 91.9 69.8 157.3 147.7 159.8 90.3 2.9 159.4-69.7 159.4-153.5-0.5-85.9-68.6-150.8-147.3-153.5z m94.5 103.6L745.2 879.7c-8.4 8.4-15.8 7.5-22.9 0.4l-56.2-56.2s-9.6-14.1 2-24.4c11.7-10.4 23.2 0 23.2 0l42.2 42.3 110.2-110.5s11-10.2 23.2 1.2c12.3 11.5 1.5 24 1.5 24z" fill="#94A2B1" /></svg>