<?xml version="1.0" standalone="no"?><!DOCTYPE svg PUBLIC "-//W3C//DTD SVG 1.1//EN" "http://www.w3.org/Graphics/SVG/1.1/DTD/svg11.dtd"><svg class="icon" width="200px" height="200.00px" viewBox="0 0 1024 1024" version="1.1" xmlns="http://www.w3.org/2000/svg"><path d="M512 62C263.5 62 62 263.5 62 512s201.5 450 450 450 450-201.5 450-450S760.5 62 512 62z m121.4 591.9c0 22.1-11.3 33.4-33 33.4h-50.1l-7.8-27.5c17.8 0.8 34.1 1.6 48.9 1.6 8.9 0 13.6-5.8 13.6-17.1V567H437.9c-4.7 50.4-19.4 92-44.6 124.9L372 672.5c25.6-34.9 38.4-79.2 39.2-132.7V350.5h222.3v303.4z" fill="#69B3FA" /><path d="M439.4 377.3h165.7v67.9H439.4zM439.4 471.2h165.7V541H439.4z" fill="#69B3FA" /></svg>