<?xml version="1.0" standalone="no"?><!DOCTYPE svg PUBLIC "-//W3C//DTD SVG 1.1//EN" "http://www.w3.org/Graphics/SVG/1.1/DTD/svg11.dtd"><svg class="icon" width="200px" height="200.00px" viewBox="0 0 1024 1024" version="1.1" xmlns="http://www.w3.org/2000/svg"><path d="M423.2 433.8c81.8 0 148-70.7 148-157.9S504.9 118 423.2 118c-81.8 0-148 70.7-148 157.9-0.1 87.3 66.2 157.9 148 157.9zM634.2 604.2c0-90.6-100.8-150.6-206.3-150.6-135.8 0-191 64.4-191 143.9v144c0 46.8-16.3 140.3 68.8 174.3 36.4 14.5 75.7 11.2 119.1 11.2 66.3 0 116.3-33.9 140.2-30.2 157.8 24.5 223.3-45.7 223.3-147.3 0-118.8-154.1-145.3-154.1-145.3z m-71.5 244.1s-77.6-109.6-40.8-160.4c31-42.8 92.6 2.2 84.1 47.3 0 0 85.8-57.8 102.8 16.8 10.7 46.7-146.1 96.3-146.1 96.3z" fill="#94A2B1" /></svg>