<?xml version="1.0" standalone="no"?><!DOCTYPE svg PUBLIC "-//W3C//DTD SVG 1.1//EN" "http://www.w3.org/Graphics/SVG/1.1/DTD/svg11.dtd"><svg class="icon" width="200px" height="200.00px" viewBox="0 0 1024 1024" version="1.1" xmlns="http://www.w3.org/2000/svg"><path d="M512.5 429c-46.7 0-84.5 38.1-84.5 84.5 0 46.7 37.8 84.5 84.5 84.5s84.5-37.8 84.5-84.5-37.8-84.5-84.5-84.5z" fill="#4CA7FF" /><path d="M902.7 436.5c-4.5-24.4-19.6-40.5-38.4-40.5h-4.1c-53.9 0-97.6-43.5-97.6-97 0-17.2 8.3-36.7 8.7-37.1 9.8-21.7 2.3-48-17.3-61.4l-1.1-0.8-98.8-54.7-1.1-0.4c-6.4-2.6-13.6-4.1-21.1-4.1-15.4 0-30.5 6-40.3 16.5-10.9 11.2-48.2 43.1-77.2 43.1s-66.7-32.6-77.6-43.8c-9.8-10.9-24.9-17.2-40.3-17.2-7.2 0-14.3 1.5-20.7 4.1l-1.1 0.4-102.4 56.2-1.1 0.8c-19.6 13.5-27.1 39.7-17.3 61.4 0 0.4 8.7 19.5 8.7 37.1 0 53.6-43.7 97-97.6 97h-4.1c-18.5 0-33.5 15.7-38.4 40.5-0.4 1.5-8.3 44.2-8.3 77.6 0 33.3 7.9 75.7 8.3 77.6 4.5 24.4 19.6 40.5 38.4 40.5h4.1c53.9 0 97.6 43.5 97.6 97 0 17.2-8.3 36.7-8.7 37.1-9.8 21.7-2.3 48 17.3 61.4l1.1 0.8 97.2 54 1.1 0.4c6.4 3 13.6 4.1 20.7 4.1 15.4 0 30.5-6.4 40.7-16.9 13.9-15 51.2-45.7 78.7-45.7 29.8 0 68.2 34.5 79.5 46.5 9.8 10.9 25.2 17.2 40.7 17.2 7.2 0 14.3-1.5 20.3-4.1l1.1-0.4 100.6-55.5 1.1-0.8c19.6-13.5 26.7-40.1 17.3-61.4 0-0.4-8.7-19.9-8.7-37.1 0-53.6 43.7-97 97.6-97h4.1c18.5 0 33.5-15.7 38.4-40.5 0-0.4 8.3-43.5 8.3-77.6 0-33.1-7.9-75.8-8.3-77.3zM510.6 653.8c-78 0-141.2-62.9-141.2-140.5s63.3-140.5 141.2-140.5c78 0 141.2 62.9 141.2 140.5 0.1 77.6-63.2 140.5-141.2 140.5z" fill="#4CA7FF" /></svg>