<?xml version="1.0" standalone="no"?><!DOCTYPE svg PUBLIC "-//W3C//DTD SVG 1.1//EN" "http://www.w3.org/Graphics/SVG/1.1/DTD/svg11.dtd"><svg class="icon" width="200px" height="200.00px" viewBox="0 0 1024 1024" version="1.1" xmlns="http://www.w3.org/2000/svg"><path d="M512 62C263.5 62 62 263.5 62 512s201.5 450 450 450 450-201.5 450-450S760.5 62 512 62z m-79.9 382v-23.3h70.6v-32.2h27.2v32.2h69.8V444h-69.8v38.4h82.6v24.4H420.4v-24.4h82.3V444h-70.6z m4.2 189v-96.6h156.8V633H436.3z m226.2 24c0 20.6-12 31-35.3 31h-50.1l-7.4-26.4c17.5 0.8 33.8 1.2 48.9 1.2 10.9 0 16.3-5.4 16.3-15.5V376.5h-235v128.4c-0.8 76-14 138.1-39.6 185.5l-21-19c21-43.1 31.8-97.8 32.6-164.1V350.5h290.6V657z" fill="#FB7676" /><path d="M463.5 560h102.8v48.5H463.5z" fill="#FB7676" /></svg>