<?xml version="1.0" standalone="no"?><!DOCTYPE svg PUBLIC "-//W3C//DTD SVG 1.1//EN" "http://www.w3.org/Graphics/SVG/1.1/DTD/svg11.dtd"><svg class="icon" width="200px" height="200.00px" viewBox="0 0 1024 1024" version="1.1" xmlns="http://www.w3.org/2000/svg"><path d="M874 753.4l-191.5-74.5s-36.5-14.2-50.7-28.1c-9.1-9-8.5-30.1-0.4-57 8.1-27 106.3-136.6 106.3-236.2C737.6 203.7 636.4 79 511.5 79c-124.9 0-226.2 124.7-226.2 278.5 0 95.4 87.5 209.1 98.3 229.8 10.8 20.7 8.2 52.2-0.4 61.7-12.8 14.3-59.6 28.7-59.6 28.7l-172.7 76.8C110.6 769 79 807 79 849.8v56.3c0 46.8 38 39.4 84.8 39.4h697.4c46.8 0 84.8 7.4 84.8-39.4v-56.3c0-42.8-31.6-82-72-96.4" fill="#00AAE8" /></svg>