<?xml version="1.0" standalone="no"?><!DOCTYPE svg PUBLIC "-//W3C//DTD SVG 1.1//EN" "http://www.w3.org/Graphics/SVG/1.1/DTD/svg11.dtd"><svg class="icon" width="200px" height="200.00px" viewBox="0 0 1024 1024" version="1.1" xmlns="http://www.w3.org/2000/svg"><path d="M689.9 490.2c-121.6 0-220.3 98.7-220.4 220.4-0.1 121.6 98.9 220.6 220.7 220.5 121.3 0 220.1-98.9 220.2-220.2 0.2-121.7-98.7-220.7-220.5-220.7z m-21.1 347.5l-3.6 3.6H664c-8.1 6-19.1 6-27.2 0l-74.6-75.1c-9.8-9.9-9.8-25.9 0-35.8 9.8-9.9 25.7-9.9 35.5 0l53.3 53.7 159.8-172.9c9.5-9.5 26.1-9.5 35.5 0 9.5 10 9.5 25.8 0 35.8L668.8 837.7z" fill="#FF5B5B" /><path d="M417.2 678.7l-0.1 0.1c9.6-58.5 35.6-108.8 75.8-151.6 27.9-30.1 61.8-53.9 99.4-69.8 2-0.9 3.5-2.6 4.4-4.6 3.2-8.6 5.8-17.3 9-25.9 0.9-2.1 2.5-3.9 4.6-4.9 7.7-3.5 14.3-9.1 19-16.2 8.6-12.5 10.4-27 10.9-41.6 0.4-13.5-3-25.9-13.2-35.6-0.9-1.2-1.5-2.8-1.4-4.4-0.6-11.6-1-23.2-1.7-34.8-1.6-32.6-8.5-64.6-20.4-94.9-11.9-30.2-31-54.4-59-70.9-49-28.8-101.5-38-156.8-27.4-51.3 9.7-89.7 38.6-114.7 85.4-12.4 23.3-18.1 48.7-21.6 74.5-2.9 22-3.4 44.3-5.1 66.4 0 2.1-0.5 4.1-1.6 5.9-18.1 23.6-16.8 48.4-4 73.5 4.5 9.2 12.2 16.5 21.5 20.4 1.9 1.1 3.3 2.8 4 4.9 3.6 9.5 6.6 19.2 10.2 28.6 5.2 13.3 12.8 24.8 24.4 33.3 5.3 4.2 10.5 8.7 15.3 13.5 7.4 6.8 12.3 15.2 13.3 25.4 0.9 8.4 1.4 16.9 1.7 25.4 0.4 11.6-3.1 22.9-10 32.1-12.9 17.8-30.6 29.7-50.4 37.5-19.3 7.7-39.3 13.4-59.1 19.7-18.7 5.9-37.9 10.4-54.9 21.1-19.7 12.5-34.3 28.7-37.8 53-1.9 13.4-3.3 27-4.4 40.4-1.9 22.8-0.7 45.4 5.5 67.6 2.8 10 8.1 17 18.5 18.9 22.7 4.3 45.4 9.4 68.3 12.5 33.5 4.5 67.2 7.9 100.7 11.2 46.1 4.7 92.5 7 138.8 6.7 1.7 0 3.3-0.3 5.8-0.5-1.4-2.9-2.4-5.1-3.6-7.2-31-58.8-42.1-121.4-31.3-187.7z" fill="#FF5B5B" /></svg>